<?xml version="1.0" encoding="utf-8"?>
<!-- Generator: Adobe Illustrator 26.5.0, SVG Export Plug-In . SVG Version: 6.00 Build 0)  -->
<svg version="1.1" id="Layer_1" xmlns="http://www.w3.org/2000/svg" xmlns:xlink="http://www.w3.org/1999/xlink" x="0px" y="0px"
	 viewBox="0 0 1270 1908" style="enable-background:new 0 0 1270 1908;" xml:space="preserve">
<path d="M421.2,430.2c0-115.1-42.1-238.1-160-238.1h-12.3c-19.9,0-35.7,15.8-35.6,35.6l-0.1,405.3c0,19.6,16,35.6,35.6,35.6
	l12.4-0.1C379.1,668.3,421.2,545.3,421.2,430.2z M261.3,632.9l-12.4-0.1V227.6l12.4-0.1c78.3,0.1,124.5,76.5,124.4,202.8
	C385.7,556.5,339.4,632.9,261.3,632.9z M421.2,430.2c0-115.1-42.1-238.1-160-238.1h-12.3c-19.9,0-35.7,15.8-35.6,35.6l-0.1,405.3
	c0,19.6,16,35.6,35.6,35.6l12.4-0.1C379.1,668.3,421.2,545.3,421.2,430.2z M261.3,632.9l-12.4-0.1V227.6l12.4-0.1
	c78.3,0.1,124.5,76.5,124.4,202.8C385.7,556.5,339.4,632.9,261.3,632.9z M421.2,430.2c0-115.1-42.1-238.1-160-238.1h-12.3
	c-19.9,0-35.7,15.8-35.6,35.6l-0.1,405.3c0,19.6,16,35.6,35.6,35.6l12.4-0.1C379.1,668.3,421.2,545.3,421.2,430.2z M261.3,632.9
	l-12.4-0.1V227.6l12.4-0.1c78.3,0.1,124.5,76.5,124.4,202.8C385.7,556.5,339.4,632.9,261.3,632.9z M421.2,430.2
	c0-115.1-42.1-238.1-160-238.1h-12.3c-19.9,0-35.7,15.8-35.6,35.6l-0.1,405.3c0,19.6,16,35.6,35.6,35.6l12.4-0.1
	C379.1,668.3,421.2,545.3,421.2,430.2z M261.3,632.9l-12.4-0.1V227.6l12.4-0.1c78.3,0.1,124.5,76.5,124.4,202.8
	C385.7,556.5,339.4,632.9,261.3,632.9z M421.2,430.2c0-115.1-42.1-238.1-160-238.1h-12.3c-19.9,0-35.7,15.8-35.6,35.6l-0.1,405.3
	c0,19.6,16,35.6,35.6,35.6l12.4-0.1C379.1,668.3,421.2,545.3,421.2,430.2z M261.3,632.9l-12.4-0.1V227.6l12.4-0.1
	c78.3,0.1,124.5,76.5,124.4,202.8C385.7,556.5,339.4,632.9,261.3,632.9z M421.2,430.2c0-115.1-42.1-238.1-160-238.1h-12.3
	c-19.9,0-35.7,15.8-35.6,35.6l-0.1,405.3c0,19.6,16,35.6,35.6,35.6l12.4-0.1C379.1,668.3,421.2,545.3,421.2,430.2z M261.3,632.9
	l-12.4-0.1V227.6l12.4-0.1c78.3,0.1,124.5,76.5,124.4,202.8C385.7,556.5,339.4,632.9,261.3,632.9z M421.2,430.2
	c0-115.1-42.1-238.1-160-238.1h-12.3c-19.9,0-35.7,15.8-35.6,35.6l-0.1,405.3c0,19.6,16,35.6,35.6,35.6l12.4-0.1
	C379.1,668.3,421.2,545.3,421.2,430.2z M261.3,632.9l-12.4-0.1V227.6l12.4-0.1c78.3,0.1,124.5,76.5,124.4,202.8
	C385.7,556.5,339.4,632.9,261.3,632.9z M421.2,430.2c0-115.1-42.1-238.1-160-238.1h-12.3c-19.9,0-35.7,15.8-35.6,35.6l-0.1,405.3
	c0,19.6,16,35.6,35.6,35.6l12.4-0.1C379.1,668.3,421.2,545.3,421.2,430.2z M261.3,632.9l-12.4-0.1V227.6l12.4-0.1
	c78.3,0.1,124.5,76.5,124.4,202.8C385.7,556.5,339.4,632.9,261.3,632.9z M884.2,1783.6l0.1-287.9l12.3,0
	c232.9-0.1,373.4-163.5,373.4-437.2c-0.1-146.2-43.1-259.8-120.6-332.3l0.4,0.1L514.2,90.9C451.4,31.8,365.6,0,261.3,0L112,0
	C39.1,0,0,39.1,0,112l0,1036.3c0,34.7,14.6,66.6,38.3,89.3c0.3,0.5,0.8,1,1.3,1.3l630.5,630.5c1.1,1.4,2.4,2.6,3.8,3.8
	c22.2,21.5,52.3,34.9,86,34.9C829.2,1908,884.2,1851.2,884.2,1783.6z M53,1200.8c-11.1-14.8-17.6-32.9-17.6-52.5l0.1-1036.1
	c0-53.5,22.9-76.4,76.4-76.4h149.3c108.8,0,194,36.2,251.5,104.2c56.2,65.7,86.2,161.9,86.2,283.3
	c0.1,255.2-123.2,401.6-337.5,401.6h-12.6c-19.6,0-35.6,16-35.6,35.6l0.1,287.9c0,49-40,89-88.8,88.8
	C95.1,1237.1,69.1,1222.9,53,1200.8z M896.6,1268.2l-12.4-0.1V863h12.6c78.2,0,124.4,76.4,124.3,202.7
	C1021.1,1191.8,974.8,1268.2,896.6,1268.2z"/>
</svg>
